<?xml version="1.0" encoding="UTF-8" standalone="no"?>
<!-- Created with Inkscape (http://www.inkscape.org/) -->

<svg
   xmlns:dc="http://purl.org/dc/elements/1.1/"
   xmlns:cc="http://creativecommons.org/ns#"
   xmlns:rdf="http://www.w3.org/1999/02/22-rdf-syntax-ns#"
   xmlns:svg="http://www.w3.org/2000/svg"
   xmlns="http://www.w3.org/2000/svg"
   xmlns:sodipodi="http://sodipodi.sourceforge.net/DTD/sodipodi-0.dtd"
   xmlns:inkscape="http://www.inkscape.org/namespaces/inkscape"
   width="500.72681"
   height="281.39035"
   id="svg4377"
   version="1.1"
   inkscape:version="0.48.4 r9939"
   sodipodi:docname="Nuevo documento 21">
  <defs
     id="defs4379">
    <filter
       inkscape:collect="always"
       id="filter3903"
       x="-0.11696124"
       width="1.2339225"
       y="-0.12895097"
       height="1.2579019"
       color-interpolation-filters="sRGB">
      <feGaussianBlur
         inkscape:collect="always"
         stdDeviation="18.31314"
         id="feGaussianBlur3905" />
    </filter>
  </defs>
  <sodipodi:namedview
     id="base"
     pagecolor="#ffffff"
     bordercolor="#666666"
     borderopacity="1.0"
     inkscape:pageopacity="0.0"
     inkscape:pageshadow="2"
     inkscape:zoom="0.35"
     inkscape:cx="250.35039"
     inkscape:cy="140.68747"
     inkscape:document-units="px"
     inkscape:current-layer="layer1"
     showgrid="false"
     fit-margin-top="0"
     fit-margin-left="0"
     fit-margin-right="0"
     fit-margin-bottom="0"
     inkscape:window-width="469"
     inkscape:window-height="383"
     inkscape:window-x="65"
     inkscape:window-y="24"
     inkscape:window-maximized="0" />
  <metadata
     id="metadata4382">
    <rdf:RDF>
      <cc:Work
         rdf:about="">
        <dc:format>image/svg+xml</dc:format>
        <dc:type
           rdf:resource="http://purl.org/dc/dcmitype/StillImage" />
        <dc:title></dc:title>
      </cc:Work>
    </rdf:RDF>
  </metadata>
  <g
     inkscape:label="Capa 1"
     inkscape:groupmode="layer"
     id="layer1"
     transform="translate(-99.649615,-391.65929)">
    <path
       sodipodi:type="spiral"
       style="fill:none;stroke:#ffffff;stroke-width:29.25658226;stroke-linecap:butt;stroke-linejoin:miter;stroke-miterlimit:4;stroke-opacity:1;stroke-dasharray:none;display:inline;filter:url(#filter3903)"
       id="path3889"
       sodipodi:cx="-822.26416"
       sodipodi:cy="363.43814"
       sodipodi:expansion="1"
       sodipodi:revolution="3.5"
       sodipodi:radius="210.54836"
       sodipodi:argument="-18.403074"
       sodipodi:t0="0.02"
       d="m -819.60165,366.70055 c 2.69796,9.74341 -11.59073,11.61641 -17.57637,8.90905 -14.90883,-6.74338 -15.11828,-26.88901 -6.76656,-38.73677 13.87194,-19.67875 42.54661,-19.07871 59.89719,-4.62406 24.63656,20.52456 23.14687,58.36359 2.48156,81.05759 -27.0303,29.68383 -74.24369,27.2654 -102.218,0.33906 -34.77659,-33.47378 -31.41113,-90.1558 1.80343,-123.3784 39.88546,-39.89511 106.08661,-35.57304 144.53882,3.94593 45.02953,46.27876 39.7453,122.0293 -6.08843,165.69922 -52.66053,50.17442 -137.98007,43.92458 -186.85964,-8.23093 -55.32653,-59.03456 -48.1088,-153.93657 10.37344,-208.02004 65.40319,-60.48386 169.89728,-52.29666 229.18044,12.51593 65.64507,71.76789 56.48725,185.86121 -14.65843,250.34086 -78.12961,70.80922 -201.8276,60.67995 -271.50126,-16.80093 -52.75244,-58.66358 -65.85684,-144.83876 -35.17744,-217.1926"
       transform="matrix(1.0029819,0,0,0.60022132,1189.9767,305.23943)" />
  </g>
</svg>
